<svg width="132" height="18" fill="none" xmlns="http://www.w3.org/2000/svg"><g clip-path="url(#clip0_94_18333)" fill="#F6F8FB"><path d="M4.5 14.017c-.67 0-1.26-.135-1.772-.406a2.991 2.991 0 01-1.199-1.126c-.278-.49-.417-1.053-.417-1.69V7.86c0-.637.139-1.2.417-1.69a2.877 2.877 0 011.199-1.126c.512-.27 1.103-.406 1.771-.406.66 0 1.242.13 1.746.393A2.9 2.9 0 017.43 6.105c.287.445.43.943.43 1.493v.092a.163.163 0 01-.052.118.14.14 0 01-.104.04H6.18a.19.19 0 01-.117-.04.192.192 0 01-.04-.118v-.04a1.35 1.35 0 00-.416-1.008c-.278-.28-.647-.42-1.108-.42-.469 0-.847.15-1.133.446-.278.288-.417.668-.417 1.14v3.04c0 .47.152.855.456 1.152.304.288.69.432 1.16.432.451 0 .811-.118 1.08-.354.27-.244.405-.58.405-1.008v-.59c0-.043-.022-.065-.066-.065H4.525a.19.19 0 01-.117-.04.192.192 0 01-.039-.117V9.052c0-.043.013-.078.04-.104a.162.162 0 01.116-.053h3.18c.042 0 .077.018.103.053a.125.125 0 01.052.104v1.73c0 .663-.139 1.24-.416 1.729a2.798 2.798 0 01-1.186 1.126c-.504.254-1.09.38-1.759.38zm7.808-6.943c.564 0 1.068.1 1.51.302.444.192.787.458 1.03.799.252.34.378.72.378 1.14v4.44a.163.163 0 01-.052.118.14.14 0 01-.104.04h-1.525a.19.19 0 01-.117-.04.192.192 0 01-.039-.118v-.432c0-.026-.009-.044-.026-.053-.017-.008-.035 0-.052.027-.365.48-.951.72-1.759.72-.677 0-1.224-.166-1.641-.498-.417-.331-.626-.82-.626-1.467 0-.672.235-1.192.704-1.559.469-.375 1.137-.563 2.006-.563h1.329c.043 0 .065-.022.065-.065v-.289c0-.288-.087-.51-.26-.668-.174-.166-.435-.249-.782-.249-.27 0-.495.048-.678.144a.675.675 0 00-.338.407c-.026.096-.083.14-.17.13l-1.576-.21c-.104-.017-.152-.056-.143-.117.034-.367.178-.699.43-.996a2.6 2.6 0 011.016-.694 3.88 3.88 0 011.42-.249zm-.26 5.568c.373 0 .69-.1.95-.302.26-.2.391-.458.391-.772v-.472c0-.044-.022-.066-.065-.066h-.938c-.391 0-.7.075-.925.223a.718.718 0 00-.326.629.7.7 0 00.248.563c.165.131.386.197.664.197zm12.419-5.568c.677 0 1.207.205 1.589.616.382.41.573.987.573 1.73v4.335a.163.163 0 01-.052.118.14.14 0 01-.104.04h-1.524a.19.19 0 01-.118-.04.193.193 0 01-.039-.118v-3.93c0-.358-.09-.642-.273-.851-.183-.21-.426-.315-.73-.315a.959.959 0 00-.742.315c-.191.21-.287.489-.287.838v3.943a.163.163 0 01-.052.118.14.14 0 01-.104.04h-1.511a.19.19 0 01-.118-.04.192.192 0 01-.039-.118v-3.93c0-.35-.095-.629-.287-.838a.94.94 0 00-.742-.328c-.278 0-.512.083-.704.25-.182.165-.29.397-.325.694v4.152a.163.163 0 01-.052.118.14.14 0 01-.105.04h-1.524a.19.19 0 01-.117-.04.192.192 0 01-.04-.118V7.336c0-.043.014-.078.04-.105a.161.161 0 01.117-.052h1.524c.044 0 .079.017.105.052a.125.125 0 01.052.105v.511c0 .026.009.044.026.053.017.008.035 0 .052-.027.356-.532.907-.799 1.654-.799.435 0 .813.092 1.134.275.33.184.582.446.756.786.026.053.056.053.09 0a1.9 1.9 0 01.77-.799c.33-.174.698-.262 1.107-.262zm9.887 1.821c.165.454.248.995.248 1.624 0 .603-.074 1.131-.221 1.585-.2.594-.522 1.062-.965 1.402-.434.34-.95.511-1.55.511-.634 0-1.133-.24-1.498-.72-.017-.018-.035-.022-.052-.014-.017 0-.026.014-.026.04v.432a.163.163 0 01-.052.118.14.14 0 01-.104.04h-1.525a.19.19 0 01-.117-.04.192.192 0 01-.04-.118V4.899c0-.043.014-.078.04-.104a.161.161 0 01.117-.053h1.524c.044 0 .079.018.105.053a.125.125 0 01.052.104v2.804c0 .026.009.043.026.052.017.009.035 0 .052-.026.339-.437.82-.655 1.446-.655.634 0 1.164.166 1.59.498.434.323.75.764.95 1.323zm-1.928 2.974c.183-.332.274-.769.274-1.31 0-.603-.104-1.066-.313-1.389-.208-.34-.517-.51-.925-.51-.382 0-.673.17-.873.51-.19.332-.286.79-.286 1.376 0 .585.087 1.026.26 1.323.209.375.513.563.912.563.426 0 .743-.188.951-.563zm4.057 2.043a.19.19 0 01-.117-.04.192.192 0 01-.04-.117V4.899c0-.043.014-.078.04-.104a.161.161 0 01.117-.053h1.524c.044 0 .079.018.105.053a.124.124 0 01.052.104v8.856a.163.163 0 01-.052.118.14.14 0 01-.105.04h-1.524zm4.536-7.492a1.03 1.03 0 01-.743-.289c-.19-.2-.286-.45-.286-.747 0-.305.095-.554.286-.746.191-.192.439-.288.743-.288s.551.096.742.288c.191.192.287.44.287.747 0 .296-.1.545-.3.746a.986.986 0 01-.73.288zm-.782 7.493a.19.19 0 01-.117-.04.192.192 0 01-.04-.118V7.323c0-.043.014-.078.04-.105a.161.161 0 01.117-.052h1.524c.044 0 .078.018.105.052a.125.125 0 01.052.105v6.432a.163.163 0 01-.052.118.14.14 0 01-.105.04h-1.524zm7.124-6.839c.695 0 1.256.214 1.681.642.426.428.638 1.009.638 1.742v4.297a.163.163 0 01-.052.118.14.14 0 01-.104.04H48a.19.19 0 01-.117-.04.192.192 0 01-.04-.118V9.838c0-.349-.1-.633-.3-.851-.19-.219-.446-.328-.768-.328-.321 0-.582.11-.781.328-.191.218-.287.502-.287.851v3.917a.163.163 0 01-.052.118.14.14 0 01-.104.04h-1.525a.19.19 0 01-.117-.04.192.192 0 01-.039-.118V7.336c0-.043.013-.078.04-.105a.162.162 0 01.116-.052h1.525c.043 0 .078.017.104.052a.125.125 0 01.052.105v.459c0 .026.009.043.026.052.017.009.03.004.04-.013.355-.507.885-.76 1.588-.76zm8.245.262c0-.043.014-.078.04-.105a.162.162 0 01.117-.052h1.524c.044 0 .078.017.104.052a.125.125 0 01.052.105v5.974c0 1.144-.33 1.96-.99 2.45-.651.489-1.494.733-2.527.733-.304 0-.643-.022-1.016-.065-.087-.01-.13-.066-.13-.17l.052-1.35c0-.114.06-.162.182-.144.313.052.6.079.86.079.556 0 .981-.123 1.276-.367.305-.245.456-.638.456-1.18 0-.025-.008-.039-.026-.039-.017-.008-.034-.004-.052.014-.33.358-.812.537-1.446.537a3.116 3.116 0 01-1.563-.406c-.47-.28-.803-.725-1.003-1.337-.13-.401-.196-.921-.196-1.559 0-.68.078-1.235.235-1.663.182-.533.49-.961.925-1.284a2.463 2.463 0 011.511-.485c.669 0 1.181.201 1.537.603.018.017.035.026.052.026.018-.009.026-.026.026-.052v-.315zm-.104 4.232c.07-.262.104-.62.104-1.075 0-.27-.008-.48-.026-.628a2.111 2.111 0 00-.09-.42 1.142 1.142 0 00-.392-.563 1.038 1.038 0 00-.677-.223c-.26 0-.482.075-.664.223-.183.14-.317.328-.404.563-.122.262-.183.616-.183 1.061 0 .49.052.839.157 1.048.078.236.212.428.404.577.2.14.434.21.703.21.278 0 .508-.07.69-.21a1.14 1.14 0 00.378-.563zM67.369 4.9a.14.14 0 01.039-.105.161.161 0 01.117-.053h1.524c.044 0 .078.018.104.053a.125.125 0 01.052.104v8.856a.163.163 0 01-.052.118.14.14 0 01-.104.04h-1.524a.19.19 0 01-.117-.04.192.192 0 01-.04-.118v-3.616c0-.043-.021-.065-.064-.065h-2.88c-.043 0-.065.022-.065.065v3.616a.163.163 0 01-.052.118.14.14 0 01-.104.04h-1.524a.19.19 0 01-.118-.04.193.193 0 01-.039-.118V4.899c0-.043.013-.078.04-.104a.162.162 0 01.117-.053h1.524c.043 0 .078.018.104.053a.125.125 0 01.052.104v3.524c0 .044.022.066.065.066h2.88c.043 0 .065-.022.065-.066V4.9zm9.665 4.952c.052.332.07.703.052 1.113-.009.105-.065.158-.17.158h-4.025c-.052 0-.07.021-.052.065.026.175.074.35.143.524.226.49.686.734 1.381.734.556-.01.995-.236 1.316-.682.035-.052.074-.078.117-.078.026 0 .057.017.092.052l.938.93c.043.044.065.083.065.118 0 .018-.018.053-.052.105a2.898 2.898 0 01-1.108.838 3.753 3.753 0 01-1.485.289c-.747 0-1.38-.17-1.902-.511a2.846 2.846 0 01-1.107-1.428c-.183-.437-.274-1.009-.274-1.716 0-.48.065-.904.196-1.271.2-.62.547-1.113 1.042-1.48.504-.367 1.098-.55 1.785-.55.868 0 1.563.253 2.084.76.53.506.851 1.183.964 2.03zM73.999 8.66c-.548 0-.908.257-1.082.773a3.09 3.09 0 00-.09.419c0 .043.02.065.064.065h2.254c.052 0 .07-.022.052-.065a10.831 10.831 0 00-.065-.367 1.087 1.087 0 00-.417-.603c-.191-.148-.43-.222-.716-.222zm4.897 5.252a.19.19 0 01-.117-.04.192.192 0 01-.04-.117V4.899c0-.043.014-.078.04-.104a.162.162 0 01.117-.053h1.524c.044 0 .078.018.104.053a.125.125 0 01.052.104v8.856a.163.163 0 01-.052.118.14.14 0 01-.104.04h-1.524zm9.524-4.925c.157.445.235.97.235 1.572 0 .602-.082 1.148-.247 1.637a2.838 2.838 0 01-.951 1.337c-.426.323-.956.484-1.59.484-.625 0-1.111-.218-1.459-.655-.017-.026-.034-.035-.052-.026-.017.009-.026.026-.026.052v2.804a.125.125 0 01-.052.105.123.123 0 01-.104.052H82.65a.162.162 0 01-.118-.052.142.142 0 01-.039-.105V7.336c0-.043.013-.078.04-.105a.162.162 0 01.117-.052h1.524c.043 0 .078.017.104.052a.125.125 0 01.052.105v.433c0 .026.009.043.026.052.018 0 .035-.009.052-.026.365-.48.869-.72 1.512-.72.599 0 1.116.17 1.55.51.443.332.76.8.95 1.402zm-1.992 2.934c.217-.34.325-.803.325-1.388 0-.55-.09-.987-.273-1.31-.2-.376-.521-.564-.964-.564-.4 0-.7.188-.9.564-.181.314-.273.755-.273 1.323 0 .585.096 1.039.287 1.362.2.35.495.524.886.524.39 0 .695-.17.912-.51zm10.429 2.136c-.677 0-1.277-.14-1.798-.42a3.028 3.028 0 01-1.198-1.165c-.287-.507-.43-1.088-.43-1.743V7.926c0-.646.143-1.219.43-1.716a2.94 2.94 0 011.198-1.153c.521-.28 1.12-.42 1.798-.42.686 0 1.285.14 1.798.42.52.27.925.655 1.211 1.153.287.497.43 1.07.43 1.716v2.803c0 .655-.143 1.236-.43 1.743-.286.506-.69.899-1.211 1.178-.513.271-1.112.407-1.798.407zm0-1.585c.478 0 .864-.153 1.16-.459.295-.306.442-.712.442-1.218V7.913c0-.507-.147-.913-.443-1.219-.286-.314-.673-.471-1.159-.471-.478 0-.864.157-1.16.471-.286.306-.43.712-.43 1.219v2.882c0 .506.144.912.43 1.218.296.306.682.459 1.16.459zm8.743-5.398c.694 0 1.255.214 1.68.642.426.428.639 1.009.639 1.742v4.297a.163.163 0 01-.053.118.139.139 0 01-.104.04h-1.524a.188.188 0 01-.117-.04.192.192 0 01-.039-.118V9.838c0-.349-.1-.633-.3-.851-.191-.219-.447-.328-.769-.328-.321 0-.582.11-.781.328-.191.218-.287.502-.287.851v3.917a.162.162 0 01-.052.118.14.14 0 01-.104.04h-1.524a.191.191 0 01-.118-.04.192.192 0 01-.039-.118V7.336c0-.043.013-.078.039-.105a.163.163 0 01.118-.052h1.524c.043 0 .078.017.104.052a.124.124 0 01.052.105v.459c0 .026.009.043.026.052.018.009.031.004.039-.013.356-.507.886-.76 1.59-.76zm4.31 6.838a.19.19 0 01-.117-.04.192.192 0 01-.039-.117V4.899c0-.043.013-.078.039-.104a.162.162 0 01.117-.053h1.525c.043 0 .078.018.104.053a.127.127 0 01.052.104v8.856a.166.166 0 01-.052.118.14.14 0 01-.104.04h-1.525zm4.536-7.492a1.03 1.03 0 01-.743-.289 1.04 1.04 0 01-.286-.747c0-.305.095-.554.286-.746.191-.192.439-.288.743-.288s.551.096.742.288c.191.192.287.44.287.747 0 .296-.1.545-.3.746a.984.984 0 01-.729.288zm-.782 7.493a.19.19 0 01-.117-.04.192.192 0 01-.039-.118V7.323c0-.043.013-.078.039-.105a.162.162 0 01.117-.052h1.524c.044 0 .078.018.105.052a.127.127 0 01.052.105v6.432a.166.166 0 01-.052.118.143.143 0 01-.105.04h-1.524zm7.124-6.839c.695 0 1.255.214 1.681.642.426.428.638 1.009.638 1.742v4.297a.162.162 0 01-.052.118.14.14 0 01-.104.04h-1.524a.191.191 0 01-.118-.04.192.192 0 01-.039-.118V9.838c0-.349-.099-.633-.299-.851-.191-.219-.448-.328-.769-.328s-.582.11-.782.328c-.191.218-.286.502-.286.851v3.917a.162.162 0 01-.052.118.14.14 0 01-.104.04h-1.525a.19.19 0 01-.117-.04.192.192 0 01-.039-.118V7.336c0-.043.013-.078.039-.105a.162.162 0 01.117-.052h1.525c.043 0 .078.017.104.052a.124.124 0 01.052.105v.459c0 .026.009.043.026.052.017.009.03.004.039-.013.356-.507.886-.76 1.589-.76zm10.044 2.778c.052.332.069.703.052 1.113-.009.105-.065.158-.169.158h-4.026c-.052 0-.069.021-.052.065.026.175.074.35.143.524.226.49.687.734 1.381.734.556-.01.995-.236 1.316-.682.035-.052.074-.078.117-.078.026 0 .057.017.092.052l.938.93c.043.044.065.083.065.118 0 .018-.018.053-.052.105a2.901 2.901 0 01-1.108.838 3.749 3.749 0 01-1.485.289c-.747 0-1.381-.17-1.902-.511a2.849 2.849 0 01-1.107-1.428c-.183-.437-.274-1.009-.274-1.716 0-.48.065-.904.196-1.271a2.889 2.889 0 011.042-1.48c.503-.367 1.098-.55 1.785-.55.868 0 1.563.253 2.084.76.53.506.851 1.183.964 2.03zm-3.035-1.192c-.548 0-.908.257-1.082.773a3.22 3.22 0 00-.091.419c0 .043.022.065.065.065h2.254c.052 0 .069-.022.052-.065a9.793 9.793 0 00-.065-.367 1.084 1.084 0 00-.417-.603c-.191-.148-.43-.222-.716-.222z"/><path fill-rule="evenodd" clip-rule="evenodd" d="M131.138 17.188H93.322v-1.456h37.816v1.456z"/></g><defs><clipPath id="clip0_94_18333"><path fill="#fff" transform="translate(.5 .813)" d="M0 0h131v16.375H0z"/></clipPath></defs></svg>