<svg width="85" height="28" fill="none" xmlns="http://www.w3.org/2000/svg"><g clip-path="url(#clip0_94_18381)"><path d="M37.59 11.319a.227.227 0 01-.22-.22v-1.22c0-.117.104-.22.22-.22h3.21c.116 0 .22.103.22.22v3.181a.518.518 0 01-.157.377c-.834.752-1.851 1.181-3.195 1.181-3.483 0-4.54-2.727-4.54-4.676 0-1.896 1.057-4.662 4.54-4.662 1.382 0 2.386.493 3.22 1.326a.228.228 0 010 .325l-.834.897c-.078.078-.208.078-.3 0-.534-.455-1.381-.831-2.086-.831-2.336 0-2.661 2.181-2.661 2.921 0 .74.327 3.026 2.66 3.026.51 0 1.175-.182 1.502-.467V11.32H37.59v-.002zm7.019-3.429c2.23 0 2.412 1.441 2.412 2.767v3.624c0 .116-.104.22-.221.22h-.783a.31.31 0 01-.287-.208l-.066-.207c-.404.338-.966.52-1.552.546-2.034.09-2.412-1.273-2.412-2.04 0-1.78 1.448-2.157 2.792-2.157.274 0 .522.038.756.091 0-.91-.3-1.065-.875-1.065-.274 0-.926.143-1.54.376a.24.24 0 01-.299-.13l-.39-.921a.247.247 0 01.104-.31c.73-.34 1.513-.586 2.36-.586zm.639 4c-.196-.053-.51-.144-.81-.144-.522 0-1.056.144-1.056.753 0 .389.365.596.768.596.482 0 .939-.273 1.096-.505v-.7h.002zm4.187 2.389c0 .116-.104.22-.221.22h-1.317a.227.227 0 01-.22-.22V8.226c0-.117.104-.22.22-.22h.756c.13 0 .249.09.287.207l.091.286a2.616 2.616 0 011.644-.599c.951 0 1.526.233 1.917.65a2.982 2.982 0 011.826-.65C56.91 7.9 57 9.628 57 11.148v3.129c0 .116-.104.22-.22.22h-1.357a.227.227 0 01-.221-.22V10.98c.013-.676.013-1.52-.848-1.52-.495 0-.9.299-1.108.559v4.26c0 .116-.104.22-.221.22h-1.344a.227.227 0 01-.221-.22V10.98c.013-.676.013-1.52-.847-1.52-.548 0-.966.286-1.174.571v4.248h-.004zm14.402-3.026c0 1.389-.692 3.364-3.117 3.364-.535 0-1.331-.235-1.709-.571l-.079.247a.31.31 0 01-.286.207h-.769a.227.227 0 01-.221-.22V5.616c0-.116.104-.22.221-.22h1.317c.116 0 .22.104.22.22v2.495c.313-.144.744-.22 1.175-.22 2.622-.002 3.248 1.92 3.248 3.362zm-1.75 0c0-.636-.182-1.793-1.604-1.793-.3 0-.81.144-1.07.311v2.755c.17.234.639.507 1.174.507 1.346 0 1.5-1.26 1.5-1.78zm4.19 3.025c0 .117-.104.22-.221.22h-1.344a.227.227 0 01-.221-.22V5.616c0-.116.104-.22.221-.22h1.344c.117 0 .22.104.22.22v8.662zm6.508-2.947c0 .13-.104.22-.236.22h-3.86c.104.766.586 1.43 1.436 1.43a2.68 2.68 0 001.448-.455c.104-.066.235-.053.312.053l.6.818a.24.24 0 01-.038.325c-.73.559-1.435.857-2.323.857-2.49 0-3.26-1.935-3.26-3.338 0-1.364.768-3.326 3.26-3.326 1.735 0 2.701 1.104 2.701 2.793a5.51 5.51 0 01-.04.623zm-1.71-.818c-.012-.533-.195-1.013-.95-1.025-.73 0-1.188.429-1.383 1.025h2.334zm6.133-1.078c-.038.116-.157.182-.287.17a3.635 3.635 0 00-.548-.054c-.418 0-.821.117-1.07.533v4.195c0 .116-.104.22-.22.22h-1.317a.227.227 0 01-.221-.22V8.226c0-.116.104-.22.22-.22h.757c.13 0 .248.078.3.207l.078.195a2.969 2.969 0 011.669-.48c.22 0 .573.025.86.065.117.013.195.142.157.247l-.378 1.195zm.9-.467a.212.212 0 01-.091-.286c.261-.48.535-1.143.626-1.467-.495-.156-.705-.507-.705-1.013 0-.598.444-1.065 1.058-1.065.86 0 1.161.598 1.161 1.169 0 .78-.705 2.13-1.2 2.83a.268.268 0 01-.327.092l-.522-.26zm4.147 1.442c.979.313 2.23.714 2.23 2.209 0 1.182-1.043 1.987-2.453 1.987-.913 0-1.643-.22-2.465-.689a.207.207 0 01-.091-.298l.495-.987a.233.233 0 01.3-.091c.6.285 1.199.492 1.696.492.378 0 .717-.156.717-.401 0-.377-.495-.533-1.083-.702-.925-.286-2.021-.65-2.021-2.013 0-1.26.9-2.013 2.217-2.013.34 0 1.212.066 2.335.584.105.053.157.182.105.285l-.483 1.053c-.053.104-.182.156-.3.104a6.273 6.273 0 00-1.447-.415c-.418-.065-.718.078-.718.351.002.231.431.375.966.544zM35.504 25.042c0 .116-.104.22-.221.22h-1.408a.227.227 0 01-.221-.22v-8.65c0-.116.104-.22.22-.22h1.409c.117 0 .22.104.22.22v3.546h3.81v-3.545c0-.117.104-.22.22-.22h1.396c.117 0 .221.104.221.22v8.649c0 .116-.104.22-.221.22h-1.395a.227.227 0 01-.221-.22v-3.417h-3.81v3.417zm12.158-2.949c0 .13-.104.22-.236.22h-3.86c.104.766.588 1.43 1.435 1.43.482 0 .992-.157 1.448-.455.104-.066.236-.053.313.052l.6.819a.24.24 0 01-.038.325c-.73.558-1.435.856-2.323.856-2.49 0-3.261-1.934-3.261-3.338 0-1.363.769-3.325 3.261-3.325 1.735 0 2.701 1.103 2.701 2.793a5.633 5.633 0 01-.04.623zm-1.71-.818c-.012-.533-.195-1.013-.953-1.025-.73 0-1.187.429-1.382 1.025h2.336zm4.122 3.767c0 .116-.104.22-.22.22h-1.345a.227.227 0 01-.22-.22v-8.664c0-.116.103-.22.22-.22h1.344c.117 0 .221.104.221.22v8.664zm2.544.104v2.493c0 .116-.104.22-.221.22H51.08a.227.227 0 01-.22-.22v-8.664c0-.116.103-.22.22-.22h.769c.13 0 .248.09.287.207l.078.248c.378-.339 1.174-.571 1.71-.571 2.426 0 3.117 1.974 3.117 3.363 0 1.404-.587 3.26-3.026 3.364-.471 0-.94-.013-1.397-.22zm0-4.416v2.752c.26.17.77.311 1.07.311 1.422 0 1.605-1.156 1.605-1.793 0-.52-.157-1.78-1.501-1.78-.535.002-1.004.275-1.174.51z" fill="#fff"/><path d="M20.336 16.413c-4.054-.805-6.596-3.036-8.955-7.552l-.079-.153-.093.045c1.217 2.971 2.687 5.882 4.905 8.542 1.386-.014 2.544-.125 3.682-.349.46-.09 1.305-.38.54-.533z" fill="url(#paint0_radial_94_18381)"/><path d="M.57 2.097a5.336 5.336 0 011.916-.14c-.434.692-.383 1.782-.1 3.3.03.169.064.343.095.52-.367-1.83-.638-2.753-1.896-3.528-.05-.032-.155-.112-.014-.152z" fill="url(#paint1_radial_94_18381)"/><path d="M2.486 1.957c.323-.515.926-1.033 1.936-1.27 1.643-.383 3.913.339 5.122 3.67.402 1.109.807 2.222 1.238 3.329-2.195-4.08-5.885-5.489-8.296-5.729z" fill="url(#paint2_radial_94_18381)"/><path d="M7.608 15.526c2.389 1.293 5.806 1.799 8.506 1.77 2.456 2.943 5.146 5.421 10.533 7.276.784.269.804.72-1.156.525a36.607 36.607 0 01-3.11-.447c-2.86-.542-5.57-1.315-7.854-2.238-4.06-1.644-7.118-3.977-9.026-7.238-.756-1.293-1.6-3.477-1.7-3.793.47 1.256 1.432 2.86 3.807 4.145z" fill="url(#paint3_radial_94_18381)"/><path d="M11.21 8.755a16.492 16.492 0 00-3.01 1.913c.632-1.002 1.636-2.069 2.677-2.74l-.095-.238C8.585 3.61 4.897 2.2 2.486 1.959c-.434.693-.383 1.782-.1 3.3.03.17.064.344.095.52.248 1.235.533 2.88 1.18 5.165 1.369 4.83 7.37 6.408 12.452 6.353-2.217-2.662-3.687-5.57-4.904-8.542z" fill="url(#paint4_radial_94_18381)"/><path d="M11.056 11.315a16.93 16.93 0 01-2.856-.649C15.282 5.004 23.15 7.92 31.872.221c.498-.44.337.485-.687 2.107-.891 1.409-2.955 3.949-7.374 6.316-4.868.498-8.736-.429-13.48 1.9.232.28.475.537.725.771z" fill="url(#paint5_radial_94_18381)"/><path d="M23.81 8.644c1.7-.175 3.056-.357 4.906-1.011.367-.13.289.269-.318.869-.55.543-1.334 1.362-3.409 2.622-2.025 1.229-5.297 2.26-8.343 2.26-2.08 0-4.005-.58-5.592-2.068 3.658.511 8.21.004 12.755-2.672z" fill="url(#paint6_radial_94_18381)"/><path d="M11.056 11.315a8.664 8.664 0 01-.727-.77c4.744-2.33 8.612-1.402 13.48-1.9-4.545 2.676-9.097 3.183-12.753 2.67z" fill="url(#paint7_radial_94_18381)"/></g><defs><radialGradient id="paint0_radial_94_18381" cx="0" cy="0" r="1" gradientUnits="userSpaceOnUse" gradientTransform="matrix(19.8583 0 0 19.7722 31.47 5.142)"><stop offset=".647" stop-color="#65BC46"/><stop offset=".805" stop-color="#63BB46"/><stop offset=".862" stop-color="#5CB947"/><stop offset=".903" stop-color="#51B647"/><stop offset=".936" stop-color="#40B048"/><stop offset=".964" stop-color="#2AA94A"/><stop offset=".989" stop-color="#0FA14B"/><stop offset="1" stop-color="#009C4C"/></radialGradient><radialGradient id="paint1_radial_94_18381" cx="0" cy="0" r="1" gradientUnits="userSpaceOnUse" gradientTransform="matrix(10.8913 0 0 10.8442 11.182 5.075)"><stop offset=".857" stop-color="#F58220"/><stop offset=".869" stop-color="#F68B1F"/><stop offset=".896" stop-color="#F8981D"/><stop offset=".93" stop-color="#FAA01B"/><stop offset="1" stop-color="#FAA21B"/></radialGradient><radialGradient id="paint2_radial_94_18381" cx="0" cy="0" r="1" gradientUnits="userSpaceOnUse" gradientTransform="matrix(14.8996 0 0 14.8351 .79 14.864)"><stop offset=".662" stop-color="#670000"/><stop offset=".704" stop-color="#6C0102"/><stop offset=".756" stop-color="#7C0506"/><stop offset=".814" stop-color="#950B0E"/><stop offset=".875" stop-color="#B81318"/><stop offset=".893" stop-color="#C4161C"/><stop offset=".903" stop-color="#CB1E20"/><stop offset=".932" stop-color="#DA3029"/><stop offset=".964" stop-color="#E33B2E"/><stop offset="1" stop-color="#E63E30"/></radialGradient><radialGradient id="paint3_radial_94_18381" cx="0" cy="0" r="1" gradientUnits="userSpaceOnUse" gradientTransform="matrix(25.5 0 0 25.3896 15.381 2.488)"><stop offset=".595" stop-color="#80C342"/><stop offset=".596" stop-color="#82C441"/><stop offset=".617" stop-color="#99CB3B"/><stop offset=".641" stop-color="#ABD135"/><stop offset=".669" stop-color="#B8D532"/><stop offset=".707" stop-color="#BFD730"/><stop offset=".791" stop-color="#C1D82F"/><stop offset=".906" stop-color="#C5D939"/><stop offset="1" stop-color="#CADB44"/></radialGradient><radialGradient id="paint4_radial_94_18381" cx="0" cy="0" r="1" gradientUnits="userSpaceOnUse" gradientTransform="matrix(20.4887 0 0 20.4 16.58 17.56)"><stop stop-color="#FFF200"/><stop offset=".428" stop-color="#FFF001"/><stop offset=".636" stop-color="#FFE803"/><stop offset=".796" stop-color="#FFDB07"/><stop offset=".931" stop-color="#FEC90D"/><stop offset="1" stop-color="#FEBC11"/></radialGradient><radialGradient id="paint5_radial_94_18381" cx="0" cy="0" r="1" gradientUnits="userSpaceOnUse" gradientTransform="matrix(36.4602 0 0 36.3024 19.706 34.139)"><stop offset=".7" stop-color="#7F2A90"/><stop offset=".714" stop-color="#96218F"/><stop offset=".735" stop-color="#B1178E"/><stop offset=".758" stop-color="#C70E8D"/><stop offset=".786" stop-color="#D8088D"/><stop offset=".82" stop-color="#E3038C"/><stop offset=".868" stop-color="#EA018C"/><stop offset="1" stop-color="#EC008C"/></radialGradient><radialGradient id="paint6_radial_94_18381" cx="0" cy="0" r="1" gradientUnits="userSpaceOnUse" gradientTransform="matrix(20.4308 0 0 20.3424 13.32 -6.135)"><stop offset=".869" stop-color="#41A3D5"/><stop offset=".885" stop-color="#49AFDB"/><stop offset=".913" stop-color="#52BEE1"/><stop offset=".947" stop-color="#57C6E5"/><stop offset="1" stop-color="#59C9E6"/></radialGradient><radialGradient id="paint7_radial_94_18381" cx="0" cy="0" r="1" gradientUnits="userSpaceOnUse" gradientTransform="matrix(14.0457 0 0 13.9849 10.384 11.653)"><stop stop-color="#007DC5"/><stop offset=".238" stop-color="#1A80C5"/><stop offset=".486" stop-color="#2E83C6"/><stop offset=".739" stop-color="#3984C6"/><stop offset="1" stop-color="#3D85C6"/></radialGradient><clipPath id="clip0_94_18381"><path fill="#fff" transform="translate(.5)" d="M0 0h84v28H0z"/></clipPath></defs></svg>