<svg width="91" height="28" fill="none" xmlns="http://www.w3.org/2000/svg"><g clip-path="url(#clip0_94_18353)"><path d="M14.419 20.115a6.115 6.115 0 100-12.23 6.115 6.115 0 000 12.23zm0-13.859l2.78-2.78V.141h-5.561v3.333l2.78 2.781z" fill="#FF5F00"/><path d="M10.546 7.302l1.017-3.812L9.89.59 5.075 3.386 6.749 6.27l3.798 1.031z" fill="#FF8300"/><path d="M7.706 10.128L6.689 6.331l-2.9-1.675-2.78 4.814 2.915 1.675 3.782-1.017z" fill="#FF5F00"/><path d="M6.674 14l-2.78-2.78H.544v5.562h3.35l2.78-2.781z" fill="#FF8300"/><path d="M7.706 17.872l-3.782-1.017-2.916 1.675 2.781 4.814 2.9-1.675 1.017-3.797z" fill="#FF5F00"/><path d="M10.532 20.713L6.749 21.73l-1.674 2.9 4.814 2.766 1.674-2.9-1.031-3.783z" fill="#FF8300"/><path d="M14.419 21.744l-2.781 2.78v3.35h5.561v-3.35l-2.78-2.78z" fill="#FF5F00"/><path d="M18.29 20.713l-1.016 3.782 1.674 2.9 4.814-2.765-1.674-2.9-3.797-1.017z" fill="#FF8300"/><path d="M21.116 17.872l1.017 3.797 2.9 1.675 2.796-4.814-2.9-1.675-3.813 1.017z" fill="#FF5F00"/><path d="M22.163 14l2.78 2.782h3.334V11.22h-3.334L22.163 14z" fill="#FF8300"/><path d="M21.116 10.128l3.813 1.017 2.9-1.675-2.796-4.814-2.885 1.675-1.032 3.797z" fill="#FF5F00"/><path d="M18.29 7.302l3.798-1.016 1.674-2.9L18.948.59l-1.674 2.9 1.017 3.812z" fill="#FF8300"/><path d="M37.905 3.445c2.437 0 3.648 1.196 3.648 1.196l-1.18 2.168s-.853-.852-2.258-.852c-1.765 0-2.467 1.076-2.467 2.287 0 1.436.942 2.452 2.377 2.452.882 0 1.57-.463 1.644-.583v-.419h-1.196V7.676h3.529v5.293h-2.258v-.404c0-.15.015-.27.03-.3h-.06c-.12.165-.867.868-2.377.868-2.541 0-4.634-1.899-4.634-4.829.044-2.75 2.078-4.859 5.202-4.859zm15.713.345h3.992c2.018 0 3.393 1.09 3.393 3.019 0 1.061-.538 2.048-1.405 2.571v.03c.03.045.21.284.404.628l1.614 2.945h-3.02l-1.435-2.885h-.777v2.885h-2.781V3.79h.015zm3.603 4.17c.628 0 .972-.374.972-.972 0-.583-.24-.956-1.077-.956h-.732v1.913l.837.015zm5.083-4.17h3.737c2.841 0 4.65 1.673 4.65 4.574 0 2.9-1.809 4.62-4.65 4.62h-3.737V3.788zm3.558 6.921c1.241 0 1.974-.792 1.974-2.347 0-1.54-.778-2.317-1.974-2.317h-.777v4.664h.777zM82.263 3.79h2.646l2.272 3.766c.374.628.658 1.406.658 1.406h.045s-.105-.822-.105-1.405V3.788h2.676v9.194h-2.69l-2.288-3.946c-.33-.554-.658-1.39-.658-1.39h-.045s.105.807.105 1.39v3.946h-2.632V3.79h.016zM33.45 15.092h3.035l1.151 3.707c.18.584.374 1.48.374 1.48h.045s.194-.882.374-1.48l1.15-3.707h3.02l.673 9.194h-2.586l-.254-3.827c-.045-.688 0-1.48 0-1.48h-.045s-.224.897-.419 1.48l-.837 2.616H36.92l-.853-2.616c-.179-.583-.418-1.48-.418-1.48h-.045s.03.777-.015 1.48l-.24 3.827h-2.615l.717-9.194zm15.444-.225c3.02 0 5.038 2.063 5.038 4.784 0 2.796-2.018 4.904-5.038 4.904-3.02 0-5.038-2.108-5.038-4.904 0-2.72 2.018-4.784 5.038-4.784zm0 7.191c1.226 0 2.123-.971 2.123-2.392 0-1.36-.883-2.287-2.123-2.287-1.241 0-2.123.927-2.123 2.287 0 1.42.897 2.392 2.123 2.392zM47.787 3.61c3.02 0 5.039 2.063 5.039 4.783 0 2.796-2.019 4.904-5.039 4.904-3.02 0-5.038-2.108-5.038-4.904.015-2.72 2.018-4.784 5.038-4.784zm0 7.19c1.226 0 2.123-.971 2.123-2.392 0-1.36-.882-2.287-2.123-2.287-1.24 0-2.123.927-2.123 2.287 0 1.42.897 2.392 2.123 2.392zm28.6-7.19c3.02 0 5.038 2.063 5.038 4.783 0 2.796-2.018 4.904-5.038 4.904-3.02 0-5.038-2.108-5.038-4.904 0-2.72 2.018-4.784 5.038-4.784zm0 7.19c1.226 0 2.123-.971 2.123-2.392 0-1.36-.882-2.287-2.123-2.287-1.226 0-2.123.927-2.123 2.287 0 1.42.882 2.392 2.123 2.392zm-16.879 4.067c3.02 0 5.038 2.063 5.038 4.784 0 2.796-2.018 4.904-5.038 4.904-3.02 0-5.038-2.108-5.038-4.904 0-2.72 2.033-4.784 5.038-4.784zm0 7.191c1.226 0 2.123-.971 2.123-2.392 0-1.36-.882-2.287-2.123-2.287-1.24 0-2.123.927-2.123 2.287 0 1.42.897 2.392 2.123 2.392zm5.965-6.966h3.738c2.84 0 4.65 1.674 4.65 4.574s-1.81 4.62-4.65 4.62h-3.738v-9.194zm3.558 6.937c1.241 0 1.974-.793 1.974-2.348 0-1.54-.777-2.317-1.974-2.317h-.777v4.665h.777zm7.281-1.376l-3.035-5.547h2.975l.883 1.9c.254.582.523 1.39.523 1.39h.045s.269-.808.538-1.39l.867-1.9h2.99l-2.99 5.547v3.633h-2.78l-.016-3.633z" fill="#F6F8FB"/></g><defs><clipPath id="clip0_94_18353"><path fill="#fff" transform="translate(.5 .021)" d="M0 0h90v27.957H0z"/></clipPath></defs></svg>